<svg width="1058" height="785" viewBox="0 0 1058 785" fill="none" xmlns="http://www.w3.org/2000/svg">
<g id="undraw_Ride_a_bicycle_2yok 1" clip-path="url(#clip0)">
<path id="Vector" d="M209.73 115.43C204.25 122.08 202.14 131.43 199.78 140.22C180.78 211.06 133.96 268.04 80.64 308.74C58.06 325.98 30.57 349.1 35.51 380.01C38.17 396.61 49.84 408.83 58.51 422.35C76.7 450.66 82.6 489.14 73.93 523.03C64.07 561.59 36.51 597.57 45.04 636.56C50.3 660.56 68.16 677.64 85.33 692.32C112.117 715.207 139.757 736.647 168.25 756.64C187.35 770.04 207.67 783.08 229.93 784.78C249.53 786.28 268.73 778.83 287.34 771.48C303.6 765.05 320.27 758.36 333.4 745.48C341.97 737.07 348.8 726.22 358.32 719.34C380.68 703.18 409.4 713.42 435.04 720.34C495.54 736.58 560.29 730.65 617.86 703.6C706.17 662.1 773.48 574.95 859.86 528.19C897 508.08 937.4 495.6 971.79 469.7C991.165 454.953 1007.81 436.936 1020.99 416.46C1046.99 376.35 1061.05 325.21 1056.99 275.15C1052.93 225.09 1030.18 176.85 994.45 148.59C956.2 118.34 907.89 112.69 864.37 94.53C819.43 75.77 779.45 43.53 734.94 23.4C698.924 7.15668 659.728 -0.81713 620.228 0.0636446C580.728 0.944419 541.926 10.6574 506.67 28.49C458.23 52.99 409.13 110.15 355.18 114.49C316.74 117.49 239.75 79.01 209.73 115.43Z" fill="url(#paint0_linear)"/>
<g id="man-bike">
<path id="Vector_2" d="M387 554.303L344.293 512.159L330.947 525.683L373.654 567.827L387 554.303Z" fill="#353640"/>
<path id="Vector_3" d="M354.48 491.99C354.48 491.99 379.27 478.91 388.85 470.49C394.617 465.444 400.818 460.917 407.38 456.96L438.48 438.03L503.48 433.03L506.48 444.03C506.48 444.03 511.48 460.03 461.48 474.03C411.48 488.03 386.48 510.03 386.48 510.03C386.48 510.03 354.48 520.99 354.48 491.99Z" fill="#DB8B8B"/>
<path id="Vector_4" opacity="0.1" d="M389.13 507.86C387.36 509.21 386.48 509.99 386.48 509.99C386.48 509.99 354.48 520.99 354.48 491.99C354.48 491.99 356.03 491.17 358.48 489.8C360.955 493.831 364.423 497.16 368.551 499.469C372.679 501.778 377.33 502.99 382.06 502.99H385.45L389.13 507.86Z" fill="black"/>
<path id="Vector_5" opacity="0.05" d="M505.54 449.55C502.76 455.44 493.17 465.12 461.48 473.99C420.87 485.36 396.75 501.99 389.13 507.86C387.36 509.21 386.48 509.99 386.48 509.99C386.48 509.99 354.48 520.99 354.48 491.99C354.48 491.99 356.03 491.17 358.48 489.8C365.91 485.73 381.64 476.8 388.82 470.45C394.586 465.403 400.787 460.875 407.35 456.92L438.45 437.99L450.03 437.1L503.45 432.99L506.45 443.99C506.45 443.99 507.15 446.14 505.54 449.55Z" fill="black"/>
<path id="Vector_6" d="M354.98 485.49L328.48 502.99L406.08 567.99C406.08 567.99 417.48 560.99 411.48 552.99C411.48 552.99 391.48 535.99 390.48 511.99L384.48 503.99H381.09C375.358 503.991 369.767 502.211 365.089 498.897C360.412 495.583 356.88 490.898 354.98 485.49V485.49Z" fill="#ABB1D1"/>
<path id="Vector_7" opacity="0.1" d="M505.54 449.55C489.54 441.82 450.48 440.99 450.48 440.99L450.06 437.1L503.48 432.99L506.48 443.99C506.48 443.99 507.15 446.14 505.54 449.55Z" fill="black"/>
<path id="Vector_8" d="M450.48 438.99C450.48 438.99 497.48 439.99 509.48 449.99L503.48 328.99H438.48L450.48 438.99Z" fill="#ABB1D1"/>
<path id="Vector_9" opacity="0.05" d="M450.48 438.49C450.48 438.49 497.48 439.49 509.48 449.49L503.48 328.49H438.48L450.48 438.49Z" fill="black"/>
<path id="Vector_10" d="M488.24 364.95C488.24 364.95 605.89 360.95 608.29 376.16C610.69 391.37 490.64 384.96 490.64 384.96C490.64 384.96 481.04 375.35 488.24 364.95Z" fill="#353640"/>
<path id="Vector_11" d="M393 425.78H372.19V606.66H393V425.78Z" fill="#646378"/>
<path id="Vector_12" opacity="0.1" d="M393 425.77V439.7C386.08 440.6 379 441.17 372.19 441.39V425.77H393Z" fill="black"/>
<path id="Vector_13" d="M392.047 401.474C389.128 401.248 386.223 400.857 383.347 400.304C372.067 398.144 343.627 393.614 335.977 401.304C326.377 410.904 329.577 427.714 355.187 430.114C380.797 432.514 424.817 426.114 433.627 416.504C433.627 416.464 417.697 403.444 392.047 401.474Z" fill="#353640"/>
<path id="Vector_14" d="M387.4 475.4L605.9 407.37L613.1 424.18L389 501.01L387.4 475.4Z" fill="#646378"/>
<path id="Vector_15" d="M452 582.487L610.172 426L619 438.9L468.051 597L452 582.487Z" fill="#646378"/>
<path id="Vector_16" opacity="0.1" d="M653.58 529.85C648.584 531.142 643.712 532.872 639.02 535.02L629.46 508.31C634.477 506.123 639.644 504.295 644.92 502.84L653.58 529.85Z" fill="black"/>
<path id="Vector_17" d="M680.33 608.26L669.13 614.66L590.99 396.33L587.49 386.56L605.9 376.15L610.51 390.53L680.33 608.26Z" fill="#646378"/>
<path id="Vector_18" opacity="0.1" d="M610.51 390.53L590.99 396.33L587.49 386.56L605.9 376.15L610.51 390.53Z" fill="black"/>
<path id="Vector_19" d="M491.44 407.37L601.09 369.75C601.09 369.75 620.3 372.15 613.09 388.16L502.65 420.97C502.65 420.97 485.85 422.57 491.44 407.37Z" fill="#353640"/>
<path id="Vector_20" opacity="0.1" d="M367.79 615.86C367.789 621.994 367.314 628.119 366.37 634.18C356.77 633.49 346.85 632.49 337.13 631.49C339.289 619.599 339.021 607.394 336.34 595.61C345.81 593.61 355.48 591.7 364.92 589.97C366.833 598.467 367.795 607.15 367.79 615.86V615.86Z" fill="black"/>
<path id="Vector_21" opacity="0.1" d="M393 585.38V606.65H372.19V588.65C379.39 587.4 386.39 586.29 393 585.38Z" fill="black"/>
<path id="Vector_22" d="M258.54 615.49C258.54 615.49 426.62 571.49 440.22 588.28C453.82 605.07 468.23 627.49 425.85 635.49C383.47 643.49 255.37 621.88 255.37 621.88L258.54 615.49Z" fill="#646378"/>
<path id="Vector_23" opacity="0.1" d="M341.21 541.37L319.85 560.92C316.067 556.064 311.791 551.614 307.09 547.64L327.03 526.81C332.164 531.249 336.908 536.12 341.21 541.37V541.37Z" fill="black"/>
<path id="Vector_24" d="M252.94 606.66L378.59 475.4L382.6 505.81L259.34 618.66L252.94 606.66Z" fill="#646378"/>
<path id="Vector_25" opacity="0.1" d="M251.34 628.27C258.415 628.27 264.15 622.535 264.15 615.46C264.15 608.385 258.415 602.65 251.34 602.65C244.265 602.65 238.53 608.385 238.53 615.46C238.53 622.535 244.265 628.27 251.34 628.27Z" fill="black"/>
<path id="Vector_26" opacity="0.1" d="M448.22 628.27C462.364 628.27 473.83 616.804 473.83 602.66C473.83 588.516 462.364 577.05 448.22 577.05C434.076 577.05 422.61 588.516 422.61 602.66C422.61 616.804 434.076 628.27 448.22 628.27Z" fill="black"/>
<path id="Vector_27" d="M449.83 628.27C463.974 628.27 475.44 616.804 475.44 602.66C475.44 588.516 463.974 577.05 449.83 577.05C435.686 577.05 424.22 588.516 424.22 602.66C424.22 616.804 435.686 628.27 449.83 628.27Z" fill="#353640"/>
<path id="Vector_28" d="M442.992 600.736L442.984 600.742C439.977 602.991 439.362 607.253 441.611 610.26L461.937 637.441C464.186 640.448 468.448 641.063 471.455 638.814L471.463 638.808C474.471 636.559 475.085 632.297 472.836 629.29L452.51 602.109C450.261 599.102 446 598.487 442.992 600.736Z" fill="#6C63FF"/>
<path id="Vector_29" d="M565.48 246.99L563.1 277.1C562.826 280.914 562.876 284.744 563.25 288.55C563.56 291.92 563.25 297.82 559.95 306.82C555.713 318.317 553.523 330.467 553.48 342.72V376.99L530.48 372.99C530.48 372.99 531.48 324.99 527.48 316.99C523.48 308.99 530.48 237.99 530.48 237.99L565.48 246.99Z" fill="#DB8B8B"/>
<path id="Vector_30" opacity="0.05" d="M564.3 261.91L563.1 277.1C562.83 280.911 562.883 284.738 563.26 288.54C563.57 291.91 563.26 297.81 559.96 306.82C555.723 318.317 553.533 330.467 553.49 342.72V376.99L530.49 372.99C530.49 372.99 531.49 324.99 527.49 316.99C524.66 311.32 527.34 274.05 529.15 252.78C529.9 244.03 530.49 237.99 530.49 237.99L565.49 246.99L564.3 261.91Z" fill="black"/>
<path id="Vector_31" d="M451.5 476.99L442.85 526.19C441.759 532.759 440.086 539.218 437.85 545.49C432.78 559.35 436.02 578.78 438.48 589.38C439.57 594.06 440.48 597.02 440.48 597.02L414.48 611.02L406.48 605.02V601.02L405.48 512.02C399.48 498.02 401.48 477.02 405.48 469.02C406.617 466.392 407.417 463.63 407.86 460.8C409.86 450.08 410.48 435.02 410.48 435.02C410.48 435.02 426.48 408.02 445.48 426.02C452.48 432.65 455.14 441.32 455.7 449.62C456.68 463.83 451.5 476.99 451.5 476.99Z" fill="#DB8B8B"/>
<path id="Vector_32" opacity="0.1" d="M455.7 449.59C441.83 457.83 417.7 460.16 407.86 460.77C409.86 450.05 410.48 434.99 410.48 434.99C410.48 434.99 426.48 407.99 445.48 425.99C452.48 432.62 455.14 441.29 455.7 449.59Z" fill="black"/>
<path id="Vector_33" d="M489.48 424.99C478.846 430.653 468.797 437.352 459.48 444.99C443.48 457.99 403.48 458.99 403.48 458.99V443.99C404.48 425.99 387.48 405.99 364.48 349.99C349.79 314.23 353.86 293.99 358.72 283.99C361.48 278.34 364.48 275.99 364.48 275.99L489.48 299.99L493.95 313.39L503.48 341.99C503.48 341.99 468.48 343.99 462.48 346.99C456.48 349.99 460.48 376.99 460.48 376.99C454.48 404.99 489.48 424.99 489.48 424.99Z" fill="#ABB1D1"/>
<path id="Vector_34" opacity="0.1" d="M565.48 246.99L564.3 261.91C546.9 266.91 534.48 250.99 534.48 250.99C532.665 251.477 530.882 252.074 529.14 252.78C529.89 244.03 530.48 237.99 530.48 237.99L565.48 246.99Z" fill="black"/>
<path id="Vector_35" opacity="0.1" d="M493.95 313.39C493.48 318.06 493.48 320.99 493.48 320.99C493.48 320.99 470.48 339.99 431.48 310.99C392.48 281.99 357.48 289.99 357.48 289.99C357.48 289.99 357.89 287.67 358.72 283.99C361.48 278.34 364.48 275.99 364.48 275.99L489.48 299.99L493.95 313.39Z" fill="black"/>
<path id="Vector_36" d="M578.96 207.94C576.35 228.29 575.48 253.94 575.48 253.94C552.48 271.94 534.48 248.94 534.48 248.94C512.76 254.77 502.55 273.78 497.74 290.37C495.164 299.344 493.732 308.607 493.48 317.94C493.48 317.94 487.4 322.94 476.2 323.94C465.61 324.83 450.43 322.07 431.48 307.94C392.48 278.94 357.48 286.94 357.48 286.94C357.48 286.94 364.48 246.94 380.48 234.94C396.48 222.94 408.48 207.94 428.48 161.94C448.48 115.94 489.48 126.94 489.48 126.94C489.48 126.94 491.48 117.94 528.48 126.94C537.492 129.302 545.834 133.721 552.85 139.85C572.64 156.49 582.24 182.3 578.96 207.94Z" fill="white"/>
<path id="Vector_37" d="M541.85 149.49C541.8 150.82 541.69 152.3 541.51 153.95C539.51 171.95 537.51 169.95 515.51 173.95C501.83 176.44 494.72 165.01 491.3 156.01C490.062 152.75 489.128 149.382 488.51 145.95L536.51 137.95C536.51 137.95 542.26 136.34 541.85 149.49Z" fill="#DB8B8B"/>
<path id="Vector_38" opacity="0.05" d="M497.74 290.42C495.164 299.394 493.732 308.657 493.48 317.99C493.48 317.99 487.4 322.99 476.2 323.99C475.884 323.353 475.643 322.682 475.48 321.99C473.48 312.99 458.48 296.99 458.48 296.99C448.48 287.99 446.48 271.99 446.48 271.99L429.98 223.49L424.48 218.99C424.48 218.99 447.48 200.99 467.48 215.99C487.48 230.99 481.48 262.99 481.48 262.99L485.48 273.99C489.63 277.49 493.85 283.66 497.74 290.42Z" fill="black"/>
<path id="Vector_39" d="M427.48 217.99L449.48 270.99C449.48 270.99 451.48 286.99 461.48 295.99C461.48 295.99 476.48 311.99 478.48 320.99C480.48 329.99 508.48 353.99 508.48 353.99C508.48 353.99 534.48 377.99 536.48 386.99C536.48 386.99 560.48 393.99 557.48 407.99C557.48 407.99 575.48 389.99 557.48 372.99C539.48 355.99 515.48 320.99 515.48 320.99C515.48 320.99 501.48 283.99 488.48 272.99L484.48 261.99C484.48 261.99 490.48 229.99 470.48 214.99C450.48 199.99 427.48 217.99 427.48 217.99Z" fill="#DB8B8B"/>
<path id="Vector_40" opacity="0.1" d="M440.48 596.99L414.48 610.99L406.48 604.99V600.99C415.464 600.352 424.193 597.718 432.03 593.28C434.43 591.92 436.69 590.58 438.5 589.4C439.55 594.03 440.48 596.99 440.48 596.99Z" fill="black"/>
<path id="Vector_41" opacity="0.1" d="M470.48 175.99L484.48 230.99C484.48 230.99 441.48 237.99 432.48 230.99C423.48 223.99 406.48 221.99 406.48 221.99C406.48 221.99 424.48 169.99 434.48 163.99C444.48 157.99 470.48 175.99 470.48 175.99Z" fill="black"/>
<path id="Vector_42" d="M470.48 173.99L484.48 228.99C484.48 228.99 441.48 235.99 432.48 228.99C423.48 221.99 406.48 219.99 406.48 219.99C406.48 219.99 424.48 167.99 434.48 161.99C444.48 155.99 470.48 173.99 470.48 173.99Z" fill="white"/>
<path id="Vector_43" opacity="0.1" d="M541.85 148.49C539.049 152.356 535.487 155.609 531.383 158.047C527.278 160.485 522.718 162.058 517.983 162.669C513.248 163.28 508.439 162.915 503.85 161.598C499.261 160.281 494.99 158.039 491.3 155.01C490.062 151.75 489.128 148.382 488.51 144.95L536.51 136.95C536.51 136.95 542.26 135.34 541.85 148.49Z" fill="black"/>
<path id="Vector_44" d="M541.99 126.941C541.99 136.239 538.619 145.157 532.619 151.731C526.619 158.306 518.481 162 509.995 162C501.509 162 493.371 158.306 487.371 151.731C481.371 145.157 478 136.239 478 126.941C478 126.36 478 125.779 478 125.198C478.211 115.9 481.784 107.075 487.934 100.663C494.083 94.2517 502.305 90.7797 510.79 91.0108C519.276 91.242 527.33 95.1573 533.181 101.896C539.032 108.634 542.201 117.643 541.99 126.941V126.941Z" fill="#DB8B8B"/>
<path id="Vector_45" opacity="0.05" d="M384.98 234.49C384.98 234.49 410.98 241.49 418.98 259.49C426.98 277.49 448.62 280.78 448.62 280.78" fill="black"/>
<path id="Vector_46" d="M482.98 630.49H422.98V649.49H482.98V630.49Z" fill="#353640"/>
<path id="Vector_47" d="M431.99 595.23C437.36 592.23 442.07 589.23 442.48 587.99C442.48 587.99 456.03 602.29 468.1 606.73C472.159 608.229 476.044 610.16 479.69 612.49C484.47 615.49 491.29 619.02 497.48 619.02C497.48 619.02 511.48 631.02 484.48 633.02C457.48 635.02 394.48 628.02 394.48 628.02L398.48 603.02C410.167 603.705 421.804 601 431.99 595.23Z" fill="#ABB1D1"/>
</g>
<g id="left-wheel">
<path id="Vector_48" d="M255.23 716.99L248.96 619.05L248.83 618.84L242.51 621.04L213.43 705.89L167.18 673.1L240.85 619.69L240.92 619.48L241.34 619.33L246.09 615.88L168.85 572.57L149.93 593.37L152.93 612.87L241.75 614.49V616.49L151.27 614.87L147.85 592.73L173.75 564.27L212.5 519.07L213.19 520.94L221.39 511.94L251.85 517.4V516.19L253.85 516.25V517.76L299.21 525.88L256.92 610.49L250.75 614.96V615.46V616.02L348.55 581.94L336.94 673.15L253.94 620.28L251.02 618.64L299.96 697.52L255.23 716.99ZM251.23 622.65L257.08 714.03L297.13 696.65L251.23 622.65ZM170.65 673.08L212.44 702.71L239.78 622.97L170.65 673.08ZM252.97 617.42L255.06 618.59L335.41 669.79L346.21 584.92L252.97 617.42ZM245.87 610.22L248.38 614.27L248.82 613.95L251.82 519.42L222.08 514.1L213.92 523.1L245.87 610.22ZM170.45 571.16L245.29 613.16L243.99 611.03L212.41 524.76L175.22 565.63L170.45 571.16ZM253.85 519.77L250.85 612.49L255.37 609.21L296.28 527.39L253.85 519.77Z" fill="#353640"/>
<path id="Vector_49" d="M364.92 589.95C360.909 572.131 352.79 555.495 341.21 541.37C336.911 536.121 332.171 531.25 327.04 526.81C307.314 509.779 282.491 499.779 256.467 498.381C230.443 496.983 204.692 504.265 183.254 519.085C161.816 533.904 145.906 555.422 138.02 580.262C130.134 605.102 130.719 631.857 139.683 656.328C148.647 680.799 165.482 701.601 187.547 715.47C209.612 729.339 235.657 735.488 261.595 732.954C287.533 730.42 311.895 719.345 330.858 701.468C349.822 683.591 362.312 659.923 366.37 634.18C367.314 628.119 367.789 621.994 367.79 615.86C367.797 607.144 366.834 598.454 364.92 589.95ZM249.73 704.3C231.498 704.281 213.714 698.647 198.797 688.164C183.879 677.682 172.552 662.859 166.356 645.712C160.16 628.565 159.395 609.926 164.165 592.329C168.935 574.732 179.009 559.031 193.018 547.361C207.026 535.692 224.288 528.619 242.457 527.106C260.627 525.593 278.821 529.712 294.567 538.904C310.312 548.096 322.845 561.914 330.46 578.48C338.076 595.045 340.405 613.554 337.13 631.49C333.38 651.933 322.58 670.414 306.611 683.718C290.642 697.021 270.514 704.304 249.73 704.3V704.3Z" fill="#353640"/>
<path id="Vector_50" d="M249.73 628.27C256.805 628.27 262.54 622.535 262.54 615.46C262.54 608.385 256.805 602.65 249.73 602.65C242.655 602.65 236.92 608.385 236.92 615.46C236.92 622.535 242.655 628.27 249.73 628.27Z" fill="#353640"/>
</g>
<g id="right-wheel">
<path id="Vector_51" d="M682.847 713.78L676.587 615.88L676.457 615.67L670.137 617.87L641.047 702.68L594.797 669.88L668.487 616.47L668.557 616.26L668.977 616.11L673.727 612.66L596.487 569.35L577.557 590.15L580.557 609.65L669.357 611.23V613.23L578.877 611.61L575.477 589.5L601.367 561.05L640.087 515.88L640.777 517.75L648.977 508.75L679.517 514.22V513.01L681.517 513.07V514.58L726.877 522.7L684.547 607.35L678.377 611.82V612.32V612.88L776.187 578.8L764.577 670.01L681.577 617.14L678.657 615.5L727.597 694.39L682.847 713.78ZM678.847 619.44L684.697 710.82L724.747 693.44L678.847 619.44ZM598.277 669.88L640.067 699.51L667.407 619.77L598.277 669.88ZM680.597 614.22L682.687 615.39L763.037 666.59L773.837 581.72L680.597 614.22ZM673.497 607.02L676.007 611.07L676.447 610.75L679.447 516.22L649.707 510.88L641.547 519.88L673.497 607.02ZM598.107 567.97L672.947 609.97L671.647 607.84L640.067 521.57L602.867 562.45L598.107 567.97ZM681.477 516.58L678.477 609.27L682.997 605.99L723.907 524.17L681.477 516.58Z" fill="#353640"/>
<path id="Vector_52" d="M677.757 495C667.144 494.988 656.578 496.415 646.347 499.24C641.071 500.695 635.904 502.523 630.887 504.71C604.157 516.297 582.674 537.387 570.594 563.898C558.514 590.41 556.697 620.459 565.492 648.233C574.287 676.008 593.071 699.533 618.209 714.259C643.348 728.984 673.054 733.863 701.582 727.952C730.109 722.04 755.431 705.759 772.648 682.257C789.865 658.755 797.754 629.702 794.789 600.72C791.823 571.738 778.215 544.885 756.595 525.356C734.975 505.828 706.881 495.012 677.747 495H677.757ZM677.357 701.09C657.076 701.082 637.408 694.137 621.62 681.407C605.831 668.678 594.872 650.931 590.562 631.113C586.252 611.295 588.851 590.599 597.928 572.463C607.004 554.326 622.011 539.84 640.457 531.41C645.149 529.262 650.021 527.532 655.017 526.24C667.229 523.07 679.977 522.537 692.411 524.678C704.845 526.818 716.681 531.581 727.13 538.652C737.58 545.722 746.404 554.937 753.015 565.683C759.627 576.429 763.873 588.46 765.473 600.975C767.073 613.49 765.989 626.202 762.293 638.265C758.598 650.329 752.375 661.467 744.04 670.939C735.704 680.41 725.447 687.998 713.951 693.196C702.455 698.395 689.984 701.086 677.367 701.09H677.357Z" fill="#353640"/>
<path id="Vector_53" d="M677.357 625.06C684.432 625.06 690.167 619.325 690.167 612.25C690.167 605.175 684.432 599.44 677.357 599.44C670.282 599.44 664.547 605.175 664.547 612.25C664.547 619.325 670.282 625.06 677.357 625.06Z" fill="#353640"/>
</g>
<g id="hat">
<path id="Vector_54" d="M458.624 106.927C460.754 113.607 470.984 113.817 476.234 118.737C478.964 121.297 480.234 125.077 483.234 127.357C487.404 130.537 493.424 129.837 498.734 129.077C509.424 127.557 520.904 126.647 530.544 131.257C533.964 132.887 537.034 135.167 540.604 136.497C544.174 137.827 548.604 137.987 551.504 135.627C553.824 133.737 554.674 130.627 556.774 128.547C558.404 126.907 560.674 125.987 562.534 124.547C566.614 121.467 568.374 116.447 569.534 111.647C571.934 101.767 572.624 91.1167 568.534 81.7467C564.444 72.3767 554.604 64.7467 543.864 65.2367C540.574 65.3867 537.364 66.2367 534.084 66.5967C525.534 67.4667 517.084 64.5967 508.504 64.1067C506.015 63.8039 503.49 64.1483 501.174 65.1067C499.427 66.0775 497.92 67.4273 496.764 69.0567C492.836 74.2021 490.146 80.1836 488.904 86.5367C487.904 91.3267 487.854 95.6667 481.984 96.4067C475.314 97.2867 454.114 92.7967 458.624 106.927Z" fill="#472727"/>
</g>
</g>
<defs>
<linearGradient id="paint0_linear" x1="827" y1="79" x2="116" y2="646" gradientUnits="userSpaceOnUse">
<stop stop-color="#7CEAE3"/>
<stop offset="1" stop-color="#FC5CFF"/>
</linearGradient>
<clipPath id="clip0">
<rect width="1057.7" height="784.98" fill="white"/>
</clipPath>
</defs>
</svg>
